<mxfile modified="2020-08-21T17:58:14.415Z" host="app.diagrams.net" agent="5.0 (Macintosh; Intel Mac OS X 10_15_6) AppleWebKit/605.1.15 (KHTML, like Gecko) Version/13.1.2 Safari/605.1.15" etag="dKFYx55h83c6bJstuzoc" version="13.6.2" type="github" pages="4">
  <diagram id="Ht1M8jgEwFfnCIfOTk4-" name="Architecture">
    <mxGraphModel dx="1892" dy="1278" grid="1" gridSize="10" guides="1" tooltips="1" connect="1" arrows="1" fold="1" page="1" pageScale="1" pageWidth="1169" pageHeight="827" background="none" math="0" shadow="0">
      <root>
        <mxCell id="0" />
        <mxCell id="1" parent="0" />
        <mxCell id="YaRt45jSneje2c83sAmx-1" value="Visual Mix architecture - Local" style="points=[[0,0],[0.25,0],[0.5,0],[0.75,0],[1,0],[1,0.25],[1,0.5],[1,0.75],[1,1],[0.75,1],[0.5,1],[0.25,1],[0,1],[0,0.75],[0,0.5],[0,0.25]];outlineConnect=0;gradientColor=none;html=1;whiteSpace=wrap;fontSize=12;fontStyle=0;shape=mxgraph.aws4.group;grIcon=mxgraph.aws4.group_security_group;grStroke=0;strokeColor=#248814;fillColor=#E9F3E6;verticalAlign=top;align=left;spacingLeft=30;fontColor=#248814;dashed=0;" parent="1" vertex="1">
          <mxGeometry x="29" y="181.5" width="831" height="458.5" as="geometry" />
        </mxCell>
        <mxCell id="iUgoQPyHH8TvtxsXmX7b-1" value="" style="group" parent="1" vertex="1" connectable="0">
          <mxGeometry x="8" y="65.5" width="1060" height="85" as="geometry" />
        </mxCell>
        <mxCell id="iUgoQPyHH8TvtxsXmX7b-2" value="Visual Mix - vm-security-api" style="text;html=1;resizable=0;points=[];autosize=1;align=left;verticalAlign=top;spacingTop=-4;fontSize=30;fontStyle=1" parent="iUgoQPyHH8TvtxsXmX7b-1" vertex="1">
          <mxGeometry x="4" width="410" height="40" as="geometry" />
        </mxCell>
        <mxCell id="iUgoQPyHH8TvtxsXmX7b-3" value="Visual Mix - Security API" style="text;html=1;resizable=0;points=[];autosize=1;align=left;verticalAlign=top;spacingTop=-4;fontSize=16" parent="iUgoQPyHH8TvtxsXmX7b-1" vertex="1">
          <mxGeometry x="4" y="50" width="190" height="20" as="geometry" />
        </mxCell>
        <mxCell id="iUgoQPyHH8TvtxsXmX7b-4" value="" style="line;strokeWidth=2;html=1;fontSize=14;" parent="iUgoQPyHH8TvtxsXmX7b-1" vertex="1">
          <mxGeometry y="75" width="1060" height="10" as="geometry" />
        </mxCell>
        <mxCell id="YaRt45jSneje2c83sAmx-2" value="API available Â client" style="fillColor=#EFF0F3;strokeColor=none;dashed=0;verticalAlign=top;fontStyle=0;fontColor=#232F3D;" parent="1" vertex="1">
          <mxGeometry x="60" y="224" width="134.5" height="386" as="geometry" />
        </mxCell>
        <mxCell id="YaRt45jSneje2c83sAmx-20" style="edgeStyle=orthogonalEdgeStyle;rounded=0;orthogonalLoop=1;jettySize=auto;html=1;exitX=0.9;exitY=0.2;exitDx=0;exitDy=0;exitPerimeter=0;entryX=0.1;entryY=0.2;entryDx=0;entryDy=0;entryPerimeter=0;" parent="1" source="YaRt45jSneje2c83sAmx-3" target="YaRt45jSneje2c83sAmx-17" edge="1">
          <mxGeometry relative="1" as="geometry" />
        </mxCell>
        <mxCell id="YaRt45jSneje2c83sAmx-99" style="edgeStyle=orthogonalEdgeStyle;rounded=0;orthogonalLoop=1;jettySize=auto;html=1;exitX=0.5;exitY=1;exitDx=0;exitDy=0;exitPerimeter=0;entryX=0;entryY=0.25;entryDx=0;entryDy=0;" parent="1" source="YaRt45jSneje2c83sAmx-3" target="YaRt45jSneje2c83sAmx-93" edge="1">
          <mxGeometry relative="1" as="geometry">
            <Array as="points">
              <mxPoint x="220" y="332" />
              <mxPoint x="220" y="390" />
            </Array>
          </mxGeometry>
        </mxCell>
        <mxCell id="YaRt45jSneje2c83sAmx-3" value="vm-av-api&lt;br&gt;&lt;br&gt;&lt;br&gt;&lt;br&gt;&lt;br&gt;&lt;br&gt;" style="html=1;dashed=0;whitespace=wrap;fillColor=#2875E2;strokeColor=#ffffff;points=[[0.005,0.63,0],[0.1,0.2,0],[0.9,0.2,0],[0.5,0,0],[0.995,0.63,0],[0.72,0.99,0],[0.5,1,0],[0.28,0.99,0]];shape=mxgraph.kubernetes.icon;prIcon=api" parent="1" vertex="1">
          <mxGeometry x="100" y="283.5" width="50" height="48" as="geometry" />
        </mxCell>
        <mxCell id="YaRt45jSneje2c83sAmx-29" style="edgeStyle=orthogonalEdgeStyle;rounded=0;orthogonalLoop=1;jettySize=auto;html=1;exitX=0.005;exitY=0.63;exitDx=0;exitDy=0;exitPerimeter=0;entryX=0.5;entryY=0;entryDx=0;entryDy=0;entryPerimeter=0;" parent="1" source="YaRt45jSneje2c83sAmx-4" target="YaRt45jSneje2c83sAmx-17" edge="1">
          <mxGeometry relative="1" as="geometry">
            <Array as="points">
              <mxPoint x="70" y="408" />
              <mxPoint x="70" y="264" />
              <mxPoint x="325" y="264" />
            </Array>
          </mxGeometry>
        </mxCell>
        <mxCell id="YaRt45jSneje2c83sAmx-98" style="edgeStyle=orthogonalEdgeStyle;rounded=0;orthogonalLoop=1;jettySize=auto;html=1;exitX=0.995;exitY=0.63;exitDx=0;exitDy=0;exitPerimeter=0;entryX=0.011;entryY=0.325;entryDx=0;entryDy=0;entryPerimeter=0;" parent="1" source="YaRt45jSneje2c83sAmx-4" target="YaRt45jSneje2c83sAmx-93" edge="1">
          <mxGeometry relative="1" as="geometry" />
        </mxCell>
        <mxCell id="YaRt45jSneje2c83sAmx-4" value="vm-visualstore-api&lt;br&gt;&lt;br&gt;&lt;br&gt;&lt;br&gt;&lt;br&gt;&lt;br&gt;" style="html=1;dashed=0;whitespace=wrap;fillColor=#2875E2;strokeColor=#ffffff;points=[[0.005,0.63,0],[0.1,0.2,0],[0.9,0.2,0],[0.5,0,0],[0.995,0.63,0],[0.72,0.99,0],[0.5,1,0],[0.28,0.99,0]];shape=mxgraph.kubernetes.icon;prIcon=api" parent="1" vertex="1">
          <mxGeometry x="100" y="378" width="50" height="48" as="geometry" />
        </mxCell>
        <mxCell id="YaRt45jSneje2c83sAmx-30" style="edgeStyle=orthogonalEdgeStyle;rounded=0;orthogonalLoop=1;jettySize=auto;html=1;exitX=0.5;exitY=0;exitDx=0;exitDy=0;exitPerimeter=0;entryX=0.005;entryY=0.63;entryDx=0;entryDy=0;entryPerimeter=0;" parent="1" source="YaRt45jSneje2c83sAmx-17" target="YaRt45jSneje2c83sAmx-4" edge="1">
          <mxGeometry relative="1" as="geometry">
            <Array as="points">
              <mxPoint x="325" y="264" />
              <mxPoint x="70" y="264" />
              <mxPoint x="70" y="408" />
            </Array>
          </mxGeometry>
        </mxCell>
        <mxCell id="YaRt45jSneje2c83sAmx-31" style="edgeStyle=orthogonalEdgeStyle;rounded=0;orthogonalLoop=1;jettySize=auto;html=1;exitX=0.1;exitY=0.2;exitDx=0;exitDy=0;exitPerimeter=0;entryX=0.9;entryY=0.2;entryDx=0;entryDy=0;entryPerimeter=0;" parent="1" source="YaRt45jSneje2c83sAmx-17" target="YaRt45jSneje2c83sAmx-3" edge="1">
          <mxGeometry relative="1" as="geometry" />
        </mxCell>
        <mxCell id="YaRt45jSneje2c83sAmx-17" value="&lt;br&gt;&lt;br&gt;&lt;br&gt;&lt;br&gt;&lt;br&gt;&lt;br&gt;&lt;br&gt;&lt;br&gt;&lt;br&gt;&lt;br&gt;vm-auth-api&lt;br&gt;&lt;br&gt;&lt;br&gt;&lt;br&gt;&lt;br&gt;" style="html=1;dashed=0;whitespace=wrap;fillColor=#2875E2;strokeColor=#ffffff;points=[[0.005,0.63,0],[0.1,0.2,0],[0.9,0.2,0],[0.5,0,0],[0.995,0.63,0],[0.72,0.99,0],[0.5,1,0],[0.28,0.99,0]];shape=mxgraph.kubernetes.icon;prIcon=api" parent="1" vertex="1">
          <mxGeometry x="300" y="283.5" width="50" height="48" as="geometry" />
        </mxCell>
        <mxCell id="YaRt45jSneje2c83sAmx-97" value="" style="group" parent="1" vertex="1" connectable="0">
          <mxGeometry x="410" y="330" width="90" height="240" as="geometry" />
        </mxCell>
        <mxCell id="YaRt45jSneje2c83sAmx-95" value="" style="group" parent="YaRt45jSneje2c83sAmx-97" vertex="1" connectable="0">
          <mxGeometry width="90" height="240" as="geometry" />
        </mxCell>
        <mxCell id="YaRt45jSneje2c83sAmx-94" value="" style="group" parent="YaRt45jSneje2c83sAmx-95" vertex="1" connectable="0">
          <mxGeometry width="90" height="240" as="geometry" />
        </mxCell>
        <mxCell id="YaRt45jSneje2c83sAmx-93" value="Schema" style="fontStyle=0;verticalAlign=top;align=center;spacingTop=-2;fillColor=none;rounded=0;whiteSpace=wrap;html=1;strokeColor=#FF0000;strokeWidth=2;dashed=1;container=1;collapsible=0;expand=0;recursiveResize=0;" parent="YaRt45jSneje2c83sAmx-94" vertex="1">
          <mxGeometry width="90" height="240" as="geometry" />
        </mxCell>
        <mxCell id="YaRt45jSneje2c83sAmx-6" value="&lt;br&gt;&lt;br&gt;&lt;br&gt;&lt;br&gt;&lt;br&gt;&lt;br&gt;&lt;br&gt;&lt;br&gt;&lt;br&gt;&lt;br&gt;&lt;br&gt;&lt;br&gt;vm-security-api&lt;br&gt;&lt;br&gt;&lt;br&gt;&lt;br&gt;&lt;br&gt;&lt;br&gt;" style="html=1;dashed=0;whitespace=wrap;fillColor=#2875E2;strokeColor=#ffffff;points=[[0.005,0.63,0],[0.1,0.2,0],[0.9,0.2,0],[0.5,0,0],[0.995,0.63,0],[0.72,0.99,0],[0.5,1,0],[0.28,0.99,0]];shape=mxgraph.kubernetes.icon;prIcon=api" parent="YaRt45jSneje2c83sAmx-93" vertex="1">
          <mxGeometry x="20" y="40" width="50" height="48" as="geometry" />
        </mxCell>
        <mxCell id="YaRt45jSneje2c83sAmx-14" value="&lt;span style=&quot;font-size: 10px&quot;&gt;vm-security&lt;/span&gt;" style="outlineConnect=0;dashed=0;verticalLabelPosition=bottom;verticalAlign=top;align=center;html=1;shape=mxgraph.aws3.rds;fillColor=#2E73B8;gradientColor=none;fontSize=14;" parent="YaRt45jSneje2c83sAmx-93" vertex="1">
          <mxGeometry x="27.669999999999845" y="169" width="34.66" height="39" as="geometry" />
        </mxCell>
        <mxCell id="E5Ojf1beW3irHs6wn2YT-1" value="Securties APIs" style="points=[[0,0],[0.25,0],[0.5,0],[0.75,0],[1,0],[1,0.25],[1,0.5],[1,0.75],[1,1],[0.75,1],[0.5,1],[0.25,1],[0,1],[0,0.75],[0,0.5],[0,0.25]];outlineConnect=0;gradientColor=none;html=1;whiteSpace=wrap;fontSize=12;fontStyle=0;shape=mxgraph.aws4.group;grIcon=mxgraph.aws4.group_aws_cloud;strokeColor=#232F3E;fillColor=none;verticalAlign=top;align=left;spacingLeft=30;fontColor=#232F3E;dashed=0;" vertex="1" parent="1">
          <mxGeometry x="700" y="209.25" width="130" height="385.5" as="geometry" />
        </mxCell>
        <mxCell id="E5Ojf1beW3irHs6wn2YT-2" value="Acesso Bio" style="html=1;fillColor=#5184F3;strokeColor=none;verticalAlign=top;labelPosition=center;verticalLabelPosition=bottom;align=center;spacingTop=-6;fontSize=11;fontStyle=1;fontColor=#999999;shape=mxgraph.gcp2.hexIcon;prIcon=cloud_apis" vertex="1" parent="1">
          <mxGeometry x="739.05" y="254" width="51.9" height="46" as="geometry" />
        </mxCell>
        <mxCell id="E5Ojf1beW3irHs6wn2YT-3" style="edgeStyle=orthogonalEdgeStyle;rounded=0;orthogonalLoop=1;jettySize=auto;html=1;exitX=0.995;exitY=0.63;exitDx=0;exitDy=0;exitPerimeter=0;entryX=0.175;entryY=0.5;entryDx=0;entryDy=0;entryPerimeter=0;" edge="1" parent="1" source="YaRt45jSneje2c83sAmx-6" target="E5Ojf1beW3irHs6wn2YT-2">
          <mxGeometry relative="1" as="geometry">
            <Array as="points">
              <mxPoint x="530" y="400" />
              <mxPoint x="530" y="277" />
            </Array>
          </mxGeometry>
        </mxCell>
        <mxCell id="E5Ojf1beW3irHs6wn2YT-6" style="edgeStyle=orthogonalEdgeStyle;rounded=0;orthogonalLoop=1;jettySize=auto;html=1;exitX=0;exitY=0.25;exitDx=0;exitDy=0;entryX=0.5;entryY=1;entryDx=0;entryDy=0;entryPerimeter=0;" edge="1" parent="1" source="YaRt45jSneje2c83sAmx-93" target="YaRt45jSneje2c83sAmx-3">
          <mxGeometry relative="1" as="geometry">
            <Array as="points">
              <mxPoint x="220" y="390" />
              <mxPoint x="220" y="332" />
            </Array>
          </mxGeometry>
        </mxCell>
        <mxCell id="E5Ojf1beW3irHs6wn2YT-7" style="edgeStyle=orthogonalEdgeStyle;rounded=0;orthogonalLoop=1;jettySize=auto;html=1;entryX=0.995;entryY=0.63;entryDx=0;entryDy=0;entryPerimeter=0;" edge="1" parent="1" target="YaRt45jSneje2c83sAmx-4">
          <mxGeometry relative="1" as="geometry">
            <mxPoint x="410" y="408" as="sourcePoint" />
            <Array as="points">
              <mxPoint x="410" y="408" />
            </Array>
          </mxGeometry>
        </mxCell>
        <mxCell id="E5Ojf1beW3irHs6wn2YT-15" value="" style="group" vertex="1" connectable="0" parent="1">
          <mxGeometry x="550" y="330" width="90" height="240" as="geometry" />
        </mxCell>
        <mxCell id="E5Ojf1beW3irHs6wn2YT-16" value="" style="group" vertex="1" connectable="0" parent="E5Ojf1beW3irHs6wn2YT-15">
          <mxGeometry width="90" height="240" as="geometry" />
        </mxCell>
        <mxCell id="E5Ojf1beW3irHs6wn2YT-17" value="" style="group" vertex="1" connectable="0" parent="E5Ojf1beW3irHs6wn2YT-16">
          <mxGeometry width="90" height="240" as="geometry" />
        </mxCell>
        <mxCell id="E5Ojf1beW3irHs6wn2YT-18" value="Schema" style="fontStyle=0;verticalAlign=top;align=center;spacingTop=-2;fillColor=none;rounded=0;whiteSpace=wrap;html=1;strokeColor=#FF0000;strokeWidth=2;dashed=1;container=1;collapsible=0;expand=0;recursiveResize=0;" vertex="1" parent="E5Ojf1beW3irHs6wn2YT-17">
          <mxGeometry width="90" height="240" as="geometry" />
        </mxCell>
        <mxCell id="E5Ojf1beW3irHs6wn2YT-19" value="&lt;br&gt;&lt;br&gt;&lt;br&gt;&lt;br&gt;&lt;br&gt;&lt;br&gt;&lt;br&gt;&lt;br&gt;&lt;br&gt;&lt;br&gt;&lt;br&gt;&lt;br&gt;vm-picture-api&lt;br&gt;&lt;br&gt;&lt;br&gt;&lt;br&gt;&lt;br&gt;" style="html=1;dashed=0;whitespace=wrap;fillColor=#2875E2;strokeColor=#ffffff;points=[[0.005,0.63,0],[0.1,0.2,0],[0.9,0.2,0],[0.5,0,0],[0.995,0.63,0],[0.72,0.99,0],[0.5,1,0],[0.28,0.99,0]];shape=mxgraph.kubernetes.icon;prIcon=api" vertex="1" parent="E5Ojf1beW3irHs6wn2YT-18">
          <mxGeometry x="20" y="40" width="50" height="48" as="geometry" />
        </mxCell>
        <mxCell id="E5Ojf1beW3irHs6wn2YT-20" value="&lt;span style=&quot;font-size: 10px&quot;&gt;vm-picture&lt;/span&gt;" style="outlineConnect=0;dashed=0;verticalLabelPosition=bottom;verticalAlign=top;align=center;html=1;shape=mxgraph.aws3.rds;fillColor=#2E73B8;gradientColor=none;fontSize=14;" vertex="1" parent="E5Ojf1beW3irHs6wn2YT-18">
          <mxGeometry x="27.669999999999845" y="169" width="34.66" height="39" as="geometry" />
        </mxCell>
        <mxCell id="E5Ojf1beW3irHs6wn2YT-22" style="edgeStyle=orthogonalEdgeStyle;rounded=0;orthogonalLoop=1;jettySize=auto;html=1;exitX=1;exitY=0.5;exitDx=0;exitDy=0;entryX=0;entryY=0.321;entryDx=0;entryDy=0;entryPerimeter=0;" edge="1" parent="1" source="YaRt45jSneje2c83sAmx-93" target="E5Ojf1beW3irHs6wn2YT-18">
          <mxGeometry relative="1" as="geometry" />
        </mxCell>
        <mxCell id="E5Ojf1beW3irHs6wn2YT-23" value="" style="group" vertex="1" connectable="0" parent="1">
          <mxGeometry x="880" y="160" width="539" height="480" as="geometry" />
        </mxCell>
        <mxCell id="9gZsiQix6CurxSerb5Fo-18" value="" style="rounded=0;whiteSpace=wrap;html=1;fillColor=#EAEDED;fontSize=22;fontColor=#FFFFFF;strokeColor=none;labelBackgroundColor=none;" parent="E5Ojf1beW3irHs6wn2YT-23" vertex="1">
          <mxGeometry width="539" height="480" as="geometry" />
        </mxCell>
        <mxCell id="QUOCif4_Dpznb4Jut9Te-1" value="&lt;b&gt;vm-auth-api &lt;/b&gt;- &amp;nbsp;Visual Mix API. It is responsible for authentication and user&#39;s management&amp;nbsp;" style="text;html=1;align=left;verticalAlign=top;spacingTop=-4;fontSize=14;labelBackgroundColor=none;whiteSpace=wrap;" vertex="1" parent="1">
          <mxGeometry x="948.5" y="220" width="449" height="46.5" as="geometry" />
        </mxCell>
        <mxCell id="QUOCif4_Dpznb4Jut9Te-2" value="&lt;b&gt;vm-security-api&amp;nbsp;&lt;/b&gt;&lt;b&gt;-&amp;nbsp;&lt;/b&gt;Visual Mix API. It the bridges between client and an external API(Acesso Digital in this case)." style="text;html=1;align=left;verticalAlign=top;spacingTop=-4;fontSize=14;labelBackgroundColor=none;whiteSpace=wrap;" vertex="1" parent="1">
          <mxGeometry x="949.5" y="284.5" width="450" height="117" as="geometry" />
        </mxCell>
        <mxCell id="QUOCif4_Dpznb4Jut9Te-3" value="&lt;span&gt;&lt;b&gt;vm-picture-api&amp;nbsp;&lt;/b&gt;&lt;/span&gt;&lt;b&gt;-&amp;nbsp;&lt;/b&gt;Visual Mix API. It is responsible to save all images before send them to external API" style="text;html=1;align=left;verticalAlign=top;spacingTop=-4;fontSize=14;labelBackgroundColor=none;whiteSpace=wrap;" vertex="1" parent="1">
          <mxGeometry x="953" y="340.5" width="450" height="49.5" as="geometry" />
        </mxCell>
        <mxCell id="QUOCif4_Dpznb4Jut9Te-4" value="&lt;b&gt;API available client&amp;nbsp;&lt;/b&gt;&lt;b&gt;- &amp;nbsp;&lt;/b&gt;Any&lt;b&gt;&amp;nbsp;&lt;/b&gt;Visual Mix API that needs security process" style="text;html=1;align=left;verticalAlign=top;spacingTop=-4;fontSize=14;labelBackgroundColor=none;whiteSpace=wrap;" vertex="1" parent="1">
          <mxGeometry x="953" y="170" width="449" height="38.5" as="geometry" />
        </mxCell>
      </root>
    </mxGraphModel>
  </diagram>
  <diagram id="MGfQ_S6StoyqCkcG_YU1" name="Simple Interaction">
    <mxGraphModel dx="1395" dy="752" grid="1" gridSize="10" guides="1" tooltips="1" connect="1" arrows="1" fold="1" page="1" pageScale="1" pageWidth="1169" pageHeight="827" math="0" shadow="0">
      <root>
        <mxCell id="5uC7GMBCHUU2KOciokQW-0" />
        <mxCell id="5uC7GMBCHUU2KOciokQW-1" parent="5uC7GMBCHUU2KOciokQW-0" />
        <mxCell id="gH_5Di6cQFd4NrzOFbnR-22" value="Simple Interaction &amp;nbsp;- Send Photo" style="fontStyle=0;verticalAlign=top;align=center;spacingTop=-2;fillColor=none;rounded=0;whiteSpace=wrap;html=1;strokeColor=#FF0000;strokeWidth=2;dashed=1;container=1;collapsible=0;expand=0;recursiveResize=0;fontSize=20;" vertex="1" parent="5uC7GMBCHUU2KOciokQW-1">
          <mxGeometry x="30" y="160" width="1080" height="180" as="geometry" />
        </mxCell>
        <mxCell id="gH_5Di6cQFd4NrzOFbnR-50" value="" style="group" vertex="1" connectable="0" parent="gH_5Di6cQFd4NrzOFbnR-22">
          <mxGeometry x="50" y="20" width="910" height="140" as="geometry" />
        </mxCell>
        <mxCell id="gH_5Di6cQFd4NrzOFbnR-1" value="AV receives &lt;br&gt;UUID &lt;br&gt;about process" style="html=1;dashed=0;whitespace=wrap;" vertex="1" parent="gH_5Di6cQFd4NrzOFbnR-50">
          <mxGeometry x="820" y="60" width="90" height="50" as="geometry" />
        </mxCell>
        <mxCell id="8bpa-kQosB6sIj7VV07S-2" value="" style="html=1;dashed=0;whitespace=wrap;shape=mxgraph.dfd.start" parent="gH_5Di6cQFd4NrzOFbnR-50" vertex="1">
          <mxGeometry x="825" width="80" height="30" as="geometry" />
        </mxCell>
        <mxCell id="gH_5Di6cQFd4NrzOFbnR-28" style="edgeStyle=orthogonalEdgeStyle;rounded=0;orthogonalLoop=1;jettySize=auto;html=1;exitX=0.5;exitY=0;exitDx=0;exitDy=0;fontSize=20;entryX=0.5;entryY=0.5;entryDx=0;entryDy=15;entryPerimeter=0;" edge="1" parent="gH_5Di6cQFd4NrzOFbnR-50" source="gH_5Di6cQFd4NrzOFbnR-1" target="8bpa-kQosB6sIj7VV07S-2">
          <mxGeometry relative="1" as="geometry" />
        </mxCell>
        <mxCell id="gH_5Di6cQFd4NrzOFbnR-9" value="&lt;div&gt;&lt;span style=&quot;font-size: 12px&quot;&gt;&amp;nbsp; &amp;nbsp; Security API&lt;/span&gt;&lt;/div&gt;&lt;font style=&quot;font-size: 12px&quot;&gt;&lt;div&gt;&amp;nbsp; create UUID&amp;nbsp;&lt;/div&gt;&lt;div&gt;to client &amp;nbsp; &amp;nbsp;&amp;nbsp;&lt;/div&gt;&lt;/font&gt;" style="shape=parallelogram;perimeter=parallelogramPerimeter;whiteSpace=wrap;html=1;dashed=0;fontSize=20;align=center;" vertex="1" parent="gH_5Di6cQFd4NrzOFbnR-50">
          <mxGeometry x="650" y="60" width="100" height="50" as="geometry" />
        </mxCell>
        <mxCell id="gH_5Di6cQFd4NrzOFbnR-19" style="edgeStyle=orthogonalEdgeStyle;rounded=0;orthogonalLoop=1;jettySize=auto;html=1;exitX=1;exitY=0.5;exitDx=0;exitDy=0;fontSize=20;" edge="1" parent="gH_5Di6cQFd4NrzOFbnR-50" source="gH_5Di6cQFd4NrzOFbnR-9" target="gH_5Di6cQFd4NrzOFbnR-1">
          <mxGeometry relative="1" as="geometry" />
        </mxCell>
        <mxCell id="gH_5Di6cQFd4NrzOFbnR-11" value="&lt;font style=&quot;font-size: 12px&quot;&gt;request&lt;br&gt;&amp;nbsp;success&lt;/font&gt;" style="shape=rhombus;html=1;dashed=0;whitespace=wrap;perimeter=rhombusPerimeter;fontSize=20;" vertex="1" parent="gH_5Di6cQFd4NrzOFbnR-50">
          <mxGeometry x="504.5" y="45" width="95" height="80" as="geometry" />
        </mxCell>
        <mxCell id="gH_5Di6cQFd4NrzOFbnR-18" style="edgeStyle=orthogonalEdgeStyle;rounded=0;orthogonalLoop=1;jettySize=auto;html=1;exitX=1;exitY=0.5;exitDx=0;exitDy=0;fontSize=20;entryX=0;entryY=0.5;entryDx=0;entryDy=0;" edge="1" parent="gH_5Di6cQFd4NrzOFbnR-50" source="gH_5Di6cQFd4NrzOFbnR-11" target="gH_5Di6cQFd4NrzOFbnR-9">
          <mxGeometry relative="1" as="geometry">
            <mxPoint x="420" y="85" as="targetPoint" />
          </mxGeometry>
        </mxCell>
        <mxCell id="gH_5Di6cQFd4NrzOFbnR-16" value="&lt;font style=&quot;font-size: 12px&quot;&gt;Yes&lt;/font&gt;" style="text;html=1;align=center;verticalAlign=middle;resizable=0;points=[];autosize=1;fontSize=20;" vertex="1" parent="gH_5Di6cQFd4NrzOFbnR-50">
          <mxGeometry x="590" y="50" width="40" height="30" as="geometry" />
        </mxCell>
        <mxCell id="gH_5Di6cQFd4NrzOFbnR-17" value="&lt;font style=&quot;font-size: 12px&quot;&gt;No&lt;/font&gt;" style="text;html=1;align=center;verticalAlign=middle;resizable=0;points=[];autosize=1;fontSize=20;" vertex="1" parent="gH_5Di6cQFd4NrzOFbnR-50">
          <mxGeometry x="520" y="30" width="30" height="30" as="geometry" />
        </mxCell>
        <mxCell id="gH_5Di6cQFd4NrzOFbnR-0" value="AV api calls &lt;br&gt;Security API to &lt;br&gt;send data" style="html=1;dashed=0;whitespace=wrap;" vertex="1" parent="gH_5Di6cQFd4NrzOFbnR-50">
          <mxGeometry x="370" y="60" width="90" height="50" as="geometry" />
        </mxCell>
        <mxCell id="gH_5Di6cQFd4NrzOFbnR-12" style="edgeStyle=orthogonalEdgeStyle;rounded=0;orthogonalLoop=1;jettySize=auto;html=1;exitX=1;exitY=0.5;exitDx=0;exitDy=0;fontSize=20;" edge="1" parent="gH_5Di6cQFd4NrzOFbnR-50" source="gH_5Di6cQFd4NrzOFbnR-0" target="gH_5Di6cQFd4NrzOFbnR-11">
          <mxGeometry relative="1" as="geometry" />
        </mxCell>
        <mxCell id="gH_5Di6cQFd4NrzOFbnR-13" style="edgeStyle=orthogonalEdgeStyle;rounded=0;orthogonalLoop=1;jettySize=auto;html=1;exitX=0.5;exitY=0;exitDx=0;exitDy=0;entryX=0.5;entryY=0;entryDx=0;entryDy=0;fontSize=20;" edge="1" parent="gH_5Di6cQFd4NrzOFbnR-50" source="gH_5Di6cQFd4NrzOFbnR-11" target="gH_5Di6cQFd4NrzOFbnR-0">
          <mxGeometry relative="1" as="geometry" />
        </mxCell>
        <mxCell id="gH_5Di6cQFd4NrzOFbnR-2" value="&lt;font style=&quot;font-size: 12px&quot;&gt;token success&lt;/font&gt;" style="shape=rhombus;html=1;dashed=0;whitespace=wrap;perimeter=rhombusPerimeter;fontSize=20;" vertex="1" parent="gH_5Di6cQFd4NrzOFbnR-50">
          <mxGeometry x="180" y="45" width="95" height="80" as="geometry" />
        </mxCell>
        <mxCell id="gH_5Di6cQFd4NrzOFbnR-6" style="edgeStyle=orthogonalEdgeStyle;rounded=0;orthogonalLoop=1;jettySize=auto;html=1;exitX=1;exitY=0.5;exitDx=0;exitDy=0;fontSize=20;entryX=0;entryY=0.5;entryDx=0;entryDy=0;" edge="1" parent="gH_5Di6cQFd4NrzOFbnR-50" source="gH_5Di6cQFd4NrzOFbnR-2" target="gH_5Di6cQFd4NrzOFbnR-0">
          <mxGeometry relative="1" as="geometry">
            <mxPoint x="130" y="80" as="targetPoint" />
          </mxGeometry>
        </mxCell>
        <mxCell id="gH_5Di6cQFd4NrzOFbnR-14" value="&lt;font style=&quot;font-size: 12px&quot;&gt;Yes&lt;/font&gt;" style="text;html=1;align=center;verticalAlign=middle;resizable=0;points=[];autosize=1;fontSize=20;" vertex="1" parent="gH_5Di6cQFd4NrzOFbnR-50">
          <mxGeometry x="260" y="60" width="40" height="30" as="geometry" />
        </mxCell>
        <mxCell id="gH_5Di6cQFd4NrzOFbnR-15" value="&lt;font style=&quot;font-size: 12px&quot;&gt;No&lt;/font&gt;" style="text;html=1;align=center;verticalAlign=middle;resizable=0;points=[];autosize=1;fontSize=20;" vertex="1" parent="gH_5Di6cQFd4NrzOFbnR-50">
          <mxGeometry x="200" y="110" width="30" height="30" as="geometry" />
        </mxCell>
        <mxCell id="3brQV2HhPV82k_EzPIoM-0" value="" style="html=1;dashed=0;whitespace=wrap;shape=mxgraph.dfd.start" parent="gH_5Di6cQFd4NrzOFbnR-50" vertex="1">
          <mxGeometry x="5" width="80" height="30" as="geometry" />
        </mxCell>
        <mxCell id="3brQV2HhPV82k_EzPIoM-1" value="AV api calls &lt;br&gt;Auth API to &lt;br&gt;get token" style="html=1;dashed=0;whitespace=wrap;" parent="gH_5Di6cQFd4NrzOFbnR-50" vertex="1">
          <mxGeometry y="60" width="90" height="50" as="geometry" />
        </mxCell>
        <mxCell id="8bpa-kQosB6sIj7VV07S-4" style="edgeStyle=orthogonalEdgeStyle;rounded=0;orthogonalLoop=1;jettySize=auto;html=1;exitX=0.5;exitY=0.5;exitDx=0;exitDy=15;exitPerimeter=0;entryX=0.5;entryY=0;entryDx=0;entryDy=0;" parent="gH_5Di6cQFd4NrzOFbnR-50" source="3brQV2HhPV82k_EzPIoM-0" target="3brQV2HhPV82k_EzPIoM-1" edge="1">
          <mxGeometry relative="1" as="geometry" />
        </mxCell>
        <mxCell id="gH_5Di6cQFd4NrzOFbnR-3" style="edgeStyle=orthogonalEdgeStyle;rounded=0;orthogonalLoop=1;jettySize=auto;html=1;exitX=1;exitY=0.5;exitDx=0;exitDy=0;entryX=0;entryY=0.5;entryDx=0;entryDy=0;fontSize=20;" edge="1" parent="gH_5Di6cQFd4NrzOFbnR-50" source="3brQV2HhPV82k_EzPIoM-1" target="gH_5Di6cQFd4NrzOFbnR-2">
          <mxGeometry relative="1" as="geometry" />
        </mxCell>
        <mxCell id="gH_5Di6cQFd4NrzOFbnR-5" style="edgeStyle=orthogonalEdgeStyle;rounded=0;orthogonalLoop=1;jettySize=auto;html=1;exitX=0.5;exitY=1;exitDx=0;exitDy=0;fontSize=20;entryX=0.5;entryY=1;entryDx=0;entryDy=0;" edge="1" parent="gH_5Di6cQFd4NrzOFbnR-50" source="gH_5Di6cQFd4NrzOFbnR-2" target="3brQV2HhPV82k_EzPIoM-1">
          <mxGeometry relative="1" as="geometry">
            <mxPoint x="-10" y="80" as="targetPoint" />
            <Array as="points">
              <mxPoint x="228" y="140" />
              <mxPoint x="45" y="140" />
            </Array>
          </mxGeometry>
        </mxCell>
        <mxCell id="ccUjn54pVpTTam-t7Y5S-0" value="" style="group" parent="5uC7GMBCHUU2KOciokQW-1" vertex="1" connectable="0">
          <mxGeometry x="8" y="65.5" width="1060" height="85" as="geometry" />
        </mxCell>
        <mxCell id="ccUjn54pVpTTam-t7Y5S-1" value="Visual Mix - vm-security-api" style="text;html=1;resizable=0;points=[];autosize=1;align=left;verticalAlign=top;spacingTop=-4;fontSize=30;fontStyle=1" parent="ccUjn54pVpTTam-t7Y5S-0" vertex="1">
          <mxGeometry x="4" width="410" height="40" as="geometry" />
        </mxCell>
        <mxCell id="ccUjn54pVpTTam-t7Y5S-2" value="Visual Mix - Security API - Interaction Flux" style="text;html=1;resizable=0;points=[];autosize=1;align=left;verticalAlign=top;spacingTop=-4;fontSize=16" parent="ccUjn54pVpTTam-t7Y5S-0" vertex="1">
          <mxGeometry x="4" y="50" width="310" height="20" as="geometry" />
        </mxCell>
        <mxCell id="ccUjn54pVpTTam-t7Y5S-3" value="" style="line;strokeWidth=2;html=1;fontSize=14;" parent="ccUjn54pVpTTam-t7Y5S-0" vertex="1">
          <mxGeometry y="75" width="1060" height="10" as="geometry" />
        </mxCell>
        <mxCell id="gH_5Di6cQFd4NrzOFbnR-24" value="Simple Interaction &amp;nbsp;- Get Status Process" style="fontStyle=0;verticalAlign=top;align=center;spacingTop=-2;fillColor=none;rounded=0;whiteSpace=wrap;html=1;strokeColor=#FF0000;strokeWidth=2;dashed=1;container=1;collapsible=0;expand=0;recursiveResize=0;fontSize=20;" vertex="1" parent="5uC7GMBCHUU2KOciokQW-1">
          <mxGeometry x="30" y="350" width="1080" height="220" as="geometry" />
        </mxCell>
        <mxCell id="gH_5Di6cQFd4NrzOFbnR-30" value="AV receives &lt;br&gt;UUID &lt;br&gt;about process" style="html=1;dashed=0;whitespace=wrap;" vertex="1" parent="gH_5Di6cQFd4NrzOFbnR-24">
          <mxGeometry x="875" y="120" width="90" height="50" as="geometry" />
        </mxCell>
        <mxCell id="gH_5Di6cQFd4NrzOFbnR-31" value="" style="html=1;dashed=0;whitespace=wrap;shape=mxgraph.dfd.start" vertex="1" parent="gH_5Di6cQFd4NrzOFbnR-24">
          <mxGeometry x="880" y="60" width="80" height="30" as="geometry" />
        </mxCell>
        <mxCell id="gH_5Di6cQFd4NrzOFbnR-29" style="edgeStyle=orthogonalEdgeStyle;rounded=0;orthogonalLoop=1;jettySize=auto;html=1;exitX=0.5;exitY=0;exitDx=0;exitDy=0;fontSize=20;entryX=0.5;entryY=0.5;entryDx=0;entryDy=15;entryPerimeter=0;" edge="1" parent="gH_5Di6cQFd4NrzOFbnR-24" source="gH_5Di6cQFd4NrzOFbnR-30" target="gH_5Di6cQFd4NrzOFbnR-31">
          <mxGeometry relative="1" as="geometry" />
        </mxCell>
        <mxCell id="gH_5Di6cQFd4NrzOFbnR-32" value="&lt;div&gt;&lt;span style=&quot;font-size: 12px&quot;&gt;&amp;nbsp; &amp;nbsp; Security API&lt;/span&gt;&lt;/div&gt;&lt;font style=&quot;font-size: 12px&quot;&gt;&lt;div&gt;response with JSON&lt;/div&gt;&lt;/font&gt;" style="shape=parallelogram;perimeter=parallelogramPerimeter;whiteSpace=wrap;html=1;dashed=0;fontSize=20;align=center;" vertex="1" parent="gH_5Di6cQFd4NrzOFbnR-24">
          <mxGeometry x="705" y="120" width="100" height="50" as="geometry" />
        </mxCell>
        <mxCell id="gH_5Di6cQFd4NrzOFbnR-33" style="edgeStyle=orthogonalEdgeStyle;rounded=0;orthogonalLoop=1;jettySize=auto;html=1;exitX=1;exitY=0.5;exitDx=0;exitDy=0;fontSize=20;" edge="1" parent="gH_5Di6cQFd4NrzOFbnR-24" source="gH_5Di6cQFd4NrzOFbnR-32" target="gH_5Di6cQFd4NrzOFbnR-30">
          <mxGeometry relative="1" as="geometry" />
        </mxCell>
        <mxCell id="gH_5Di6cQFd4NrzOFbnR-34" value="&lt;font style=&quot;font-size: 12px&quot;&gt;request&lt;br&gt;&amp;nbsp;success&lt;/font&gt;" style="shape=rhombus;html=1;dashed=0;whitespace=wrap;perimeter=rhombusPerimeter;fontSize=20;" vertex="1" parent="gH_5Di6cQFd4NrzOFbnR-24">
          <mxGeometry x="559.5" y="105" width="95" height="80" as="geometry" />
        </mxCell>
        <mxCell id="gH_5Di6cQFd4NrzOFbnR-35" style="edgeStyle=orthogonalEdgeStyle;rounded=0;orthogonalLoop=1;jettySize=auto;html=1;exitX=1;exitY=0.5;exitDx=0;exitDy=0;fontSize=20;entryX=0;entryY=0.5;entryDx=0;entryDy=0;" edge="1" parent="gH_5Di6cQFd4NrzOFbnR-24" source="gH_5Di6cQFd4NrzOFbnR-34" target="gH_5Di6cQFd4NrzOFbnR-32">
          <mxGeometry relative="1" as="geometry">
            <mxPoint x="445" y="-15" as="targetPoint" />
          </mxGeometry>
        </mxCell>
        <mxCell id="gH_5Di6cQFd4NrzOFbnR-36" value="&lt;font style=&quot;font-size: 12px&quot;&gt;Yes&lt;/font&gt;" style="text;html=1;align=center;verticalAlign=middle;resizable=0;points=[];autosize=1;fontSize=20;" vertex="1" parent="gH_5Di6cQFd4NrzOFbnR-24">
          <mxGeometry x="645" y="110" width="40" height="30" as="geometry" />
        </mxCell>
        <mxCell id="gH_5Di6cQFd4NrzOFbnR-37" value="&lt;font style=&quot;font-size: 12px&quot;&gt;No&lt;/font&gt;" style="text;html=1;align=center;verticalAlign=middle;resizable=0;points=[];autosize=1;fontSize=20;" vertex="1" parent="gH_5Di6cQFd4NrzOFbnR-24">
          <mxGeometry x="575" y="90" width="30" height="30" as="geometry" />
        </mxCell>
        <mxCell id="gH_5Di6cQFd4NrzOFbnR-38" value="AV api calls &lt;br&gt;Security API to &lt;br&gt;get data" style="html=1;dashed=0;whitespace=wrap;" vertex="1" parent="gH_5Di6cQFd4NrzOFbnR-24">
          <mxGeometry x="425" y="120" width="90" height="50" as="geometry" />
        </mxCell>
        <mxCell id="gH_5Di6cQFd4NrzOFbnR-39" style="edgeStyle=orthogonalEdgeStyle;rounded=0;orthogonalLoop=1;jettySize=auto;html=1;exitX=1;exitY=0.5;exitDx=0;exitDy=0;fontSize=20;" edge="1" parent="gH_5Di6cQFd4NrzOFbnR-24" source="gH_5Di6cQFd4NrzOFbnR-38" target="gH_5Di6cQFd4NrzOFbnR-34">
          <mxGeometry relative="1" as="geometry" />
        </mxCell>
        <mxCell id="gH_5Di6cQFd4NrzOFbnR-40" style="edgeStyle=orthogonalEdgeStyle;rounded=0;orthogonalLoop=1;jettySize=auto;html=1;exitX=0.5;exitY=0;exitDx=0;exitDy=0;entryX=0.5;entryY=0;entryDx=0;entryDy=0;fontSize=20;" edge="1" parent="gH_5Di6cQFd4NrzOFbnR-24" source="gH_5Di6cQFd4NrzOFbnR-34" target="gH_5Di6cQFd4NrzOFbnR-38">
          <mxGeometry relative="1" as="geometry" />
        </mxCell>
        <mxCell id="gH_5Di6cQFd4NrzOFbnR-41" value="&lt;font style=&quot;font-size: 12px&quot;&gt;token success&lt;/font&gt;" style="shape=rhombus;html=1;dashed=0;whitespace=wrap;perimeter=rhombusPerimeter;fontSize=20;" vertex="1" parent="gH_5Di6cQFd4NrzOFbnR-24">
          <mxGeometry x="235" y="105" width="95" height="80" as="geometry" />
        </mxCell>
        <mxCell id="gH_5Di6cQFd4NrzOFbnR-42" style="edgeStyle=orthogonalEdgeStyle;rounded=0;orthogonalLoop=1;jettySize=auto;html=1;exitX=1;exitY=0.5;exitDx=0;exitDy=0;fontSize=20;entryX=0;entryY=0.5;entryDx=0;entryDy=0;" edge="1" parent="gH_5Di6cQFd4NrzOFbnR-24" source="gH_5Di6cQFd4NrzOFbnR-41" target="gH_5Di6cQFd4NrzOFbnR-38">
          <mxGeometry relative="1" as="geometry">
            <mxPoint x="155" y="-20" as="targetPoint" />
          </mxGeometry>
        </mxCell>
        <mxCell id="gH_5Di6cQFd4NrzOFbnR-43" value="&lt;font style=&quot;font-size: 12px&quot;&gt;Yes&lt;/font&gt;" style="text;html=1;align=center;verticalAlign=middle;resizable=0;points=[];autosize=1;fontSize=20;" vertex="1" parent="gH_5Di6cQFd4NrzOFbnR-24">
          <mxGeometry x="315" y="120" width="40" height="30" as="geometry" />
        </mxCell>
        <mxCell id="gH_5Di6cQFd4NrzOFbnR-44" value="&lt;font style=&quot;font-size: 12px&quot;&gt;No&lt;/font&gt;" style="text;html=1;align=center;verticalAlign=middle;resizable=0;points=[];autosize=1;fontSize=20;" vertex="1" parent="gH_5Di6cQFd4NrzOFbnR-24">
          <mxGeometry x="255" y="170" width="30" height="30" as="geometry" />
        </mxCell>
        <mxCell id="gH_5Di6cQFd4NrzOFbnR-45" value="" style="html=1;dashed=0;whitespace=wrap;shape=mxgraph.dfd.start" vertex="1" parent="gH_5Di6cQFd4NrzOFbnR-24">
          <mxGeometry x="60" y="60" width="80" height="30" as="geometry" />
        </mxCell>
        <mxCell id="gH_5Di6cQFd4NrzOFbnR-46" value="AV api calls &lt;br&gt;Auth API to &lt;br&gt;get token" style="html=1;dashed=0;whitespace=wrap;" vertex="1" parent="gH_5Di6cQFd4NrzOFbnR-24">
          <mxGeometry x="55" y="120" width="90" height="50" as="geometry" />
        </mxCell>
        <mxCell id="gH_5Di6cQFd4NrzOFbnR-47" style="edgeStyle=orthogonalEdgeStyle;rounded=0;orthogonalLoop=1;jettySize=auto;html=1;exitX=0.5;exitY=0.5;exitDx=0;exitDy=15;exitPerimeter=0;entryX=0.5;entryY=0;entryDx=0;entryDy=0;" edge="1" parent="gH_5Di6cQFd4NrzOFbnR-24" source="gH_5Di6cQFd4NrzOFbnR-45" target="gH_5Di6cQFd4NrzOFbnR-46">
          <mxGeometry relative="1" as="geometry" />
        </mxCell>
        <mxCell id="gH_5Di6cQFd4NrzOFbnR-48" style="edgeStyle=orthogonalEdgeStyle;rounded=0;orthogonalLoop=1;jettySize=auto;html=1;exitX=1;exitY=0.5;exitDx=0;exitDy=0;entryX=0;entryY=0.5;entryDx=0;entryDy=0;fontSize=20;" edge="1" parent="gH_5Di6cQFd4NrzOFbnR-24" source="gH_5Di6cQFd4NrzOFbnR-46" target="gH_5Di6cQFd4NrzOFbnR-41">
          <mxGeometry relative="1" as="geometry" />
        </mxCell>
        <mxCell id="gH_5Di6cQFd4NrzOFbnR-49" style="edgeStyle=orthogonalEdgeStyle;rounded=0;orthogonalLoop=1;jettySize=auto;html=1;exitX=0.5;exitY=1;exitDx=0;exitDy=0;fontSize=20;entryX=0.5;entryY=1;entryDx=0;entryDy=0;" edge="1" parent="gH_5Di6cQFd4NrzOFbnR-24" source="gH_5Di6cQFd4NrzOFbnR-41" target="gH_5Di6cQFd4NrzOFbnR-46">
          <mxGeometry relative="1" as="geometry">
            <mxPoint x="15" y="-20" as="targetPoint" />
            <Array as="points">
              <mxPoint x="283" y="200" />
              <mxPoint x="100" y="200" />
            </Array>
          </mxGeometry>
        </mxCell>
        <mxCell id="gH_5Di6cQFd4NrzOFbnR-51" value="Simple Interaction &amp;nbsp;- Callback Status Process" style="fontStyle=0;verticalAlign=top;align=center;spacingTop=-2;fillColor=none;rounded=0;whiteSpace=wrap;html=1;strokeColor=#FF0000;strokeWidth=2;dashed=1;container=1;collapsible=0;expand=0;recursiveResize=0;fontSize=20;" vertex="1" parent="5uC7GMBCHUU2KOciokQW-1">
          <mxGeometry x="30" y="580" width="1080" height="220" as="geometry" />
        </mxCell>
        <mxCell id="gH_5Di6cQFd4NrzOFbnR-53" value="" style="html=1;dashed=0;whitespace=wrap;shape=mxgraph.dfd.start" vertex="1" parent="gH_5Di6cQFd4NrzOFbnR-51">
          <mxGeometry x="790" y="115" width="80" height="30" as="geometry" />
        </mxCell>
        <mxCell id="gH_5Di6cQFd4NrzOFbnR-76" style="edgeStyle=orthogonalEdgeStyle;rounded=0;orthogonalLoop=1;jettySize=auto;html=1;exitX=1;exitY=0.5;exitDx=0;exitDy=0;entryX=0;entryY=0.5;entryDx=0;entryDy=0;fontSize=20;" edge="1" parent="gH_5Di6cQFd4NrzOFbnR-51" source="gH_5Di6cQFd4NrzOFbnR-55" target="gH_5Di6cQFd4NrzOFbnR-75">
          <mxGeometry relative="1" as="geometry" />
        </mxCell>
        <mxCell id="gH_5Di6cQFd4NrzOFbnR-55" value="&lt;div&gt;&lt;span style=&quot;font-size: 12px&quot;&gt;&amp;nbsp; &amp;nbsp; Security API&lt;/span&gt;&lt;/div&gt;&lt;font style=&quot;font-size: 12px&quot;&gt;&lt;div&gt;send SON by callback&lt;/div&gt;&lt;/font&gt;" style="shape=parallelogram;perimeter=parallelogramPerimeter;whiteSpace=wrap;html=1;dashed=0;fontSize=20;align=center;" vertex="1" parent="gH_5Di6cQFd4NrzOFbnR-51">
          <mxGeometry x="215" y="120" width="100" height="50" as="geometry" />
        </mxCell>
        <mxCell id="gH_5Di6cQFd4NrzOFbnR-81" style="edgeStyle=orthogonalEdgeStyle;rounded=0;orthogonalLoop=1;jettySize=auto;html=1;exitX=1;exitY=0.5;exitDx=0;exitDy=0;entryX=0;entryY=0.5;entryDx=0;entryDy=0;fontSize=20;" edge="1" parent="gH_5Di6cQFd4NrzOFbnR-51" source="gH_5Di6cQFd4NrzOFbnR-61" target="gH_5Di6cQFd4NrzOFbnR-80">
          <mxGeometry relative="1" as="geometry" />
        </mxCell>
        <mxCell id="gH_5Di6cQFd4NrzOFbnR-61" value="AV api calls &lt;br&gt;Security API to &lt;br&gt;get data" style="html=1;dashed=0;whitespace=wrap;" vertex="1" parent="gH_5Di6cQFd4NrzOFbnR-51">
          <mxGeometry x="510" y="60" width="90" height="50" as="geometry" />
        </mxCell>
        <mxCell id="gH_5Di6cQFd4NrzOFbnR-68" value="" style="html=1;dashed=0;whitespace=wrap;shape=mxgraph.dfd.start" vertex="1" parent="gH_5Di6cQFd4NrzOFbnR-51">
          <mxGeometry x="60" y="60" width="80" height="30" as="geometry" />
        </mxCell>
        <mxCell id="gH_5Di6cQFd4NrzOFbnR-73" style="edgeStyle=orthogonalEdgeStyle;rounded=0;orthogonalLoop=1;jettySize=auto;html=1;exitX=1;exitY=0.5;exitDx=0;exitDy=0;entryX=0;entryY=0.5;entryDx=0;entryDy=0;fontSize=20;" edge="1" parent="gH_5Di6cQFd4NrzOFbnR-51" source="gH_5Di6cQFd4NrzOFbnR-69" target="gH_5Di6cQFd4NrzOFbnR-55">
          <mxGeometry relative="1" as="geometry" />
        </mxCell>
        <mxCell id="gH_5Di6cQFd4NrzOFbnR-69" value="Security API&lt;br&gt;receives data fly&lt;br&gt;&amp;nbsp;Acesso Digital" style="html=1;dashed=0;whitespace=wrap;" vertex="1" parent="gH_5Di6cQFd4NrzOFbnR-51">
          <mxGeometry x="55" y="120" width="90" height="50" as="geometry" />
        </mxCell>
        <mxCell id="gH_5Di6cQFd4NrzOFbnR-70" style="edgeStyle=orthogonalEdgeStyle;rounded=0;orthogonalLoop=1;jettySize=auto;html=1;exitX=0.5;exitY=0.5;exitDx=0;exitDy=15;exitPerimeter=0;entryX=0.5;entryY=0;entryDx=0;entryDy=0;" edge="1" parent="gH_5Di6cQFd4NrzOFbnR-51" source="gH_5Di6cQFd4NrzOFbnR-68" target="gH_5Di6cQFd4NrzOFbnR-69">
          <mxGeometry relative="1" as="geometry" />
        </mxCell>
        <mxCell id="gH_5Di6cQFd4NrzOFbnR-77" style="edgeStyle=orthogonalEdgeStyle;rounded=0;orthogonalLoop=1;jettySize=auto;html=1;exitX=1;exitY=0.5;exitDx=0;exitDy=0;entryX=0;entryY=0.5;entryDx=0;entryDy=0;fontSize=20;" edge="1" parent="gH_5Di6cQFd4NrzOFbnR-51" source="gH_5Di6cQFd4NrzOFbnR-75" target="gH_5Di6cQFd4NrzOFbnR-61">
          <mxGeometry relative="1" as="geometry" />
        </mxCell>
        <mxCell id="gH_5Di6cQFd4NrzOFbnR-82" style="edgeStyle=orthogonalEdgeStyle;rounded=0;orthogonalLoop=1;jettySize=auto;html=1;exitX=0.5;exitY=1;exitDx=0;exitDy=0;entryX=0.5;entryY=1;entryDx=0;entryDy=0;fontSize=20;" edge="1" parent="gH_5Di6cQFd4NrzOFbnR-51" source="gH_5Di6cQFd4NrzOFbnR-75" target="gH_5Di6cQFd4NrzOFbnR-80">
          <mxGeometry relative="1" as="geometry" />
        </mxCell>
        <mxCell id="gH_5Di6cQFd4NrzOFbnR-75" value="&lt;font style=&quot;font-size: 12px&quot;&gt;AV API on&lt;/font&gt;" style="shape=rhombus;html=1;dashed=0;whitespace=wrap;perimeter=rhombusPerimeter;fontSize=20;" vertex="1" parent="gH_5Di6cQFd4NrzOFbnR-51">
          <mxGeometry x="340" y="105" width="95" height="80" as="geometry" />
        </mxCell>
        <mxCell id="gH_5Di6cQFd4NrzOFbnR-78" value="&lt;font style=&quot;font-size: 12px&quot;&gt;Yes&lt;/font&gt;" style="text;html=1;align=center;verticalAlign=middle;resizable=0;points=[];autosize=1;fontSize=20;" vertex="1" parent="gH_5Di6cQFd4NrzOFbnR-51">
          <mxGeometry x="420" y="120" width="40" height="30" as="geometry" />
        </mxCell>
        <mxCell id="gH_5Di6cQFd4NrzOFbnR-84" style="edgeStyle=orthogonalEdgeStyle;rounded=0;orthogonalLoop=1;jettySize=auto;html=1;exitX=1;exitY=0.5;exitDx=0;exitDy=0;entryX=0;entryY=0.5;entryDx=0;entryDy=0;entryPerimeter=0;fontSize=20;" edge="1" parent="gH_5Di6cQFd4NrzOFbnR-51" source="gH_5Di6cQFd4NrzOFbnR-80" target="gH_5Di6cQFd4NrzOFbnR-53">
          <mxGeometry relative="1" as="geometry" />
        </mxCell>
        <mxCell id="gH_5Di6cQFd4NrzOFbnR-80" value="Security API&amp;nbsp;&lt;br&gt;will not send&lt;br&gt;&amp;nbsp;again data" style="html=1;dashed=0;whitespace=wrap;" vertex="1" parent="gH_5Di6cQFd4NrzOFbnR-51">
          <mxGeometry x="660" y="105" width="90" height="50" as="geometry" />
        </mxCell>
        <mxCell id="gH_5Di6cQFd4NrzOFbnR-83" value="&lt;font style=&quot;font-size: 12px&quot;&gt;No&lt;/font&gt;" style="text;html=1;align=center;verticalAlign=middle;resizable=0;points=[];autosize=1;fontSize=20;" vertex="1" parent="gH_5Di6cQFd4NrzOFbnR-51">
          <mxGeometry x="390" y="180" width="30" height="30" as="geometry" />
        </mxCell>
      </root>
    </mxGraphModel>
  </diagram>
  <diagram id="sDBQkYz8PmR6vnkKx3aT" name="DFD - Nivel 0">
    <mxGraphModel dx="946" dy="639" grid="1" gridSize="10" guides="1" tooltips="1" connect="1" arrows="1" fold="1" page="1" pageScale="1" pageWidth="1169" pageHeight="827" math="0" shadow="0">
      <root>
        <mxCell id="2rSgHIbdFwvIc0WvtrLs-0" />
        <mxCell id="2rSgHIbdFwvIc0WvtrLs-1" parent="2rSgHIbdFwvIc0WvtrLs-0" />
        <mxCell id="2I1-ourpG88yM8pqYZ4m-5" value="" style="group" parent="2rSgHIbdFwvIc0WvtrLs-1" vertex="1" connectable="0">
          <mxGeometry x="385" y="160" width="315" height="400" as="geometry" />
        </mxCell>
        <mxCell id="2I1-ourpG88yM8pqYZ4m-3" value="Security" style="verticalAlign=top;align=left;spacingTop=8;spacingLeft=2;spacingRight=12;shape=cube;size=10;direction=south;fontStyle=4;html=1;" parent="2I1-ourpG88yM8pqYZ4m-5" vertex="1">
          <mxGeometry width="242.30769230769226" height="399.99999999999994" as="geometry" />
        </mxCell>
        <mxCell id="2I1-ourpG88yM8pqYZ4m-4" value="" style="group" parent="2I1-ourpG88yM8pqYZ4m-5" vertex="1" connectable="0">
          <mxGeometry x="6.0576923076923075" y="24.242424242424242" width="187.78846153846158" height="224.24242424242425" as="geometry" />
        </mxCell>
        <mxCell id="2rSgHIbdFwvIc0WvtrLs-4" value="search process" style="ellipse;whiteSpace=wrap;html=1;" parent="2I1-ourpG88yM8pqYZ4m-4" vertex="1">
          <mxGeometry x="102.98076923076923" y="66.66666666666667" width="84.80769230769232" height="42.42424242424242" as="geometry" />
        </mxCell>
        <mxCell id="LXXfUvdEIz77tF7RVQGW-0" value="search history process" style="ellipse;whiteSpace=wrap;html=1;" parent="2I1-ourpG88yM8pqYZ4m-4" vertex="1">
          <mxGeometry x="102.98076923076923" y="127.27272727272727" width="84.80769230769232" height="42.42424242424242" as="geometry" />
        </mxCell>
        <mxCell id="LXXfUvdEIz77tF7RVQGW-1" value="evaluation" style="ellipse;whiteSpace=wrap;html=1;" parent="2I1-ourpG88yM8pqYZ4m-4" vertex="1">
          <mxGeometry x="102.98076923076923" y="12.121212121212123" width="84.80769230769232" height="42.42424242424242" as="geometry" />
        </mxCell>
        <mxCell id="_NZBhcsEG71UM_qgGvOy-0" style="edgeStyle=orthogonalEdgeStyle;rounded=0;orthogonalLoop=1;jettySize=auto;html=1;exitX=0;exitY=1;exitDx=0;exitDy=0;exitPerimeter=0;entryX=0.5;entryY=0;entryDx=0;entryDy=0;" parent="2rSgHIbdFwvIc0WvtrLs-1" source="2rSgHIbdFwvIc0WvtrLs-2" target="LXXfUvdEIz77tF7RVQGW-0" edge="1">
          <mxGeometry relative="1" as="geometry">
            <Array as="points">
              <mxPoint x="740" y="300" />
              <mxPoint x="536" y="300" />
            </Array>
          </mxGeometry>
        </mxCell>
        <mxCell id="_NZBhcsEG71UM_qgGvOy-1" style="edgeStyle=orthogonalEdgeStyle;rounded=0;orthogonalLoop=1;jettySize=auto;html=1;exitX=0.5;exitY=0;exitDx=0;exitDy=0;exitPerimeter=0;entryX=1;entryY=0.5;entryDx=0;entryDy=0;" parent="2rSgHIbdFwvIc0WvtrLs-1" source="2rSgHIbdFwvIc0WvtrLs-2" target="LXXfUvdEIz77tF7RVQGW-1" edge="1">
          <mxGeometry relative="1" as="geometry" />
        </mxCell>
        <mxCell id="2rSgHIbdFwvIc0WvtrLs-2" value="Client" style="shape=umlActor;verticalLabelPosition=bottom;verticalAlign=top;html=1;" parent="2rSgHIbdFwvIc0WvtrLs-1" vertex="1">
          <mxGeometry x="740" y="242.12" width="30" height="60" as="geometry" />
        </mxCell>
        <mxCell id="lSDAhZMTf5IQAqP99dPR-0" value="" style="group" parent="2rSgHIbdFwvIc0WvtrLs-1" vertex="1" connectable="0">
          <mxGeometry x="8" y="65.5" width="1060" height="85" as="geometry" />
        </mxCell>
        <mxCell id="lSDAhZMTf5IQAqP99dPR-1" value="Visual Mix - vm-security-api" style="text;html=1;resizable=0;points=[];autosize=1;align=left;verticalAlign=top;spacingTop=-4;fontSize=30;fontStyle=1" parent="lSDAhZMTf5IQAqP99dPR-0" vertex="1">
          <mxGeometry x="4" width="410" height="40" as="geometry" />
        </mxCell>
        <mxCell id="lSDAhZMTf5IQAqP99dPR-2" value="Visual Mix - Security API" style="text;html=1;resizable=0;points=[];autosize=1;align=left;verticalAlign=top;spacingTop=-4;fontSize=16" parent="lSDAhZMTf5IQAqP99dPR-0" vertex="1">
          <mxGeometry x="4" y="50" width="190" height="20" as="geometry" />
        </mxCell>
        <mxCell id="lSDAhZMTf5IQAqP99dPR-3" value="" style="line;strokeWidth=2;html=1;fontSize=14;" parent="lSDAhZMTf5IQAqP99dPR-0" vertex="1">
          <mxGeometry y="75" width="1060" height="10" as="geometry" />
        </mxCell>
        <mxCell id="2I1-ourpG88yM8pqYZ4m-14" style="edgeStyle=orthogonalEdgeStyle;rounded=0;orthogonalLoop=1;jettySize=auto;html=1;exitX=0.5;exitY=0.5;exitDx=0;exitDy=0;exitPerimeter=0;entryX=1;entryY=0.5;entryDx=0;entryDy=0;" parent="2rSgHIbdFwvIc0WvtrLs-1" source="2rSgHIbdFwvIc0WvtrLs-2" target="2rSgHIbdFwvIc0WvtrLs-4" edge="1">
          <mxGeometry relative="1" as="geometry" />
        </mxCell>
      </root>
    </mxGraphModel>
  </diagram>
  <diagram id="pde1DReSZWbTPYTm3tCZ" name="Entity Diagram">
    <mxGraphModel dx="1577" dy="1065" grid="1" gridSize="10" guides="1" tooltips="1" connect="1" arrows="1" fold="1" page="1" pageScale="1" pageWidth="1169" pageHeight="827" math="0" shadow="0">
      <root>
        <mxCell id="T9Nn7Okn6skYNSkeCLy9-0" />
        <mxCell id="T9Nn7Okn6skYNSkeCLy9-1" parent="T9Nn7Okn6skYNSkeCLy9-0" />
        <mxCell id="H3bQChXNQjlG4DXLPdU9-0" value="" style="group" parent="T9Nn7Okn6skYNSkeCLy9-1" vertex="1" connectable="0">
          <mxGeometry x="8" y="65.5" width="1060" height="85" as="geometry" />
        </mxCell>
        <mxCell id="H3bQChXNQjlG4DXLPdU9-1" value="Visual Mix - vm-security-api" style="text;html=1;resizable=0;points=[];autosize=1;align=left;verticalAlign=top;spacingTop=-4;fontSize=30;fontStyle=1" parent="H3bQChXNQjlG4DXLPdU9-0" vertex="1">
          <mxGeometry x="4" width="410" height="40" as="geometry" />
        </mxCell>
        <mxCell id="H3bQChXNQjlG4DXLPdU9-2" value="Visual Mix - Security API - Entity Diagram" style="text;html=1;resizable=0;points=[];autosize=1;align=left;verticalAlign=top;spacingTop=-4;fontSize=16" parent="H3bQChXNQjlG4DXLPdU9-0" vertex="1">
          <mxGeometry x="4" y="50" width="310" height="20" as="geometry" />
        </mxCell>
        <mxCell id="H3bQChXNQjlG4DXLPdU9-3" value="" style="line;strokeWidth=2;html=1;fontSize=14;" parent="H3bQChXNQjlG4DXLPdU9-0" vertex="1">
          <mxGeometry y="75" width="1060" height="10" as="geometry" />
        </mxCell>
        <mxCell id="hmAbQtuS3bcoNJItyeLB-1" value="process" style="swimlane;childLayout=stackLayout;horizontal=1;startSize=30;horizontalStack=0;rounded=1;fontSize=20;fontStyle=0;strokeWidth=2;resizeParent=0;resizeLast=1;shadow=0;dashed=0;align=center;" vertex="1" parent="T9Nn7Okn6skYNSkeCLy9-1">
          <mxGeometry x="50" y="220" width="200" height="270" as="geometry" />
        </mxCell>
        <mxCell id="hmAbQtuS3bcoNJItyeLB-2" value="-Â tenant_id : long PK&#xa;-Â uuid : char(36) PK&#xa;- uuid_ext: char(100)&#xa;- user_id: long&#xa;- api_id: short&#xa;" style="align=left;strokeColor=none;fillColor=none;spacingLeft=4;fontSize=20;verticalAlign=top;resizable=0;rotatable=0;part=1;" vertex="1" parent="hmAbQtuS3bcoNJItyeLB-1">
          <mxGeometry y="30" width="200" height="240" as="geometry" />
        </mxCell>
        <mxCell id="hmAbQtuS3bcoNJItyeLB-7" value="process_detail" style="swimlane;childLayout=stackLayout;horizontal=1;startSize=30;horizontalStack=0;rounded=1;fontSize=20;fontStyle=0;strokeWidth=2;resizeParent=0;resizeLast=1;shadow=0;dashed=0;align=center;" vertex="1" parent="T9Nn7Okn6skYNSkeCLy9-1">
          <mxGeometry x="270" y="220" width="200" height="270" as="geometry" />
        </mxCell>
        <mxCell id="hmAbQtuS3bcoNJItyeLB-8" value="-Â tenant_id : long PK&#xa;-Â uuid : char(36) PK&#xa;-Â date_process: date&#xa;- status: Status" style="align=left;strokeColor=none;fillColor=none;spacingLeft=4;fontSize=20;verticalAlign=top;resizable=0;rotatable=0;part=1;" vertex="1" parent="hmAbQtuS3bcoNJItyeLB-7">
          <mxGeometry y="30" width="200" height="240" as="geometry" />
        </mxCell>
        <mxCell id="hmAbQtuS3bcoNJItyeLB-9" value="process_detail_aud" style="swimlane;childLayout=stackLayout;horizontal=1;startSize=30;horizontalStack=0;rounded=1;fontSize=20;fontStyle=0;strokeWidth=2;resizeParent=0;resizeLast=1;shadow=0;dashed=0;align=center;" vertex="1" parent="T9Nn7Okn6skYNSkeCLy9-1">
          <mxGeometry x="270" y="530" width="200" height="270" as="geometry" />
        </mxCell>
        <mxCell id="hmAbQtuS3bcoNJItyeLB-10" value="-Â tenant_id : long PK&#xa;-Â uuid : char(36) PK&#xa;-Â date_process: date&#xa;- status: Status&#xa;- last_date: datetime" style="align=left;strokeColor=none;fillColor=none;spacingLeft=4;fontSize=20;verticalAlign=top;resizable=0;rotatable=0;part=1;" vertex="1" parent="hmAbQtuS3bcoNJItyeLB-9">
          <mxGeometry y="30" width="200" height="240" as="geometry" />
        </mxCell>
        <mxCell id="hmAbQtuS3bcoNJItyeLB-3" value="user_facial_process" style="swimlane;childLayout=stackLayout;horizontal=1;startSize=30;horizontalStack=0;rounded=1;fontSize=20;fontStyle=0;strokeWidth=2;resizeParent=0;resizeLast=1;shadow=0;dashed=0;align=center;" vertex="1" parent="T9Nn7Okn6skYNSkeCLy9-1">
          <mxGeometry x="490" y="220" width="260" height="270" as="geometry" />
        </mxCell>
        <mxCell id="hmAbQtuS3bcoNJItyeLB-4" value="-Â tenant_idÂ : long PK&#xa;-Â uuid_process: char(36) PK&#xa;-Â identifier: char(50)&#xa;- callback: char(300)&#xa;- photo_id : long&#xa;- score_min : Â byte&#xa;- score_max : byte&#xa;- type_photo: Enum&#xa;- hard_approve: boolÂ &#xa;&#xa;" style="align=left;strokeColor=none;fillColor=none;spacingLeft=4;fontSize=20;verticalAlign=top;resizable=0;rotatable=0;part=1;" vertex="1" parent="hmAbQtuS3bcoNJItyeLB-3">
          <mxGeometry y="30" width="260" height="240" as="geometry" />
        </mxCell>
        <mxCell id="hmAbQtuS3bcoNJItyeLB-13" value="user_facial_response" style="swimlane;childLayout=stackLayout;horizontal=1;startSize=30;horizontalStack=0;rounded=1;fontSize=20;fontStyle=0;strokeWidth=2;resizeParent=0;resizeLast=1;shadow=0;dashed=0;align=center;" vertex="1" parent="T9Nn7Okn6skYNSkeCLy9-1">
          <mxGeometry x="490" y="530" width="260" height="270" as="geometry" />
        </mxCell>
        <mxCell id="hmAbQtuS3bcoNJItyeLB-14" value="-Â tenant_idÂ : long PK&#xa;-Â uuid_process: char(36) PK&#xa;- score : Â byte&#xa;- type_photo: Enum&#xa;- hard_approve: boolÂ " style="align=left;strokeColor=none;fillColor=none;spacingLeft=4;fontSize=20;verticalAlign=top;resizable=0;rotatable=0;part=1;" vertex="1" parent="hmAbQtuS3bcoNJItyeLB-13">
          <mxGeometry y="30" width="260" height="240" as="geometry" />
        </mxCell>
        <mxCell id="hmAbQtuS3bcoNJItyeLB-11" value="credential" style="swimlane;childLayout=stackLayout;horizontal=1;startSize=30;horizontalStack=0;rounded=1;fontSize=20;fontStyle=0;strokeWidth=2;resizeParent=0;resizeLast=1;shadow=0;dashed=0;align=center;" vertex="1" parent="T9Nn7Okn6skYNSkeCLy9-1">
          <mxGeometry x="770" y="220" width="200" height="270" as="geometry" />
        </mxCell>
        <mxCell id="hmAbQtuS3bcoNJItyeLB-12" value="-Â tenant_id : long PK&#xa;- {{API_CAPA}}" style="align=left;strokeColor=none;fillColor=none;spacingLeft=4;fontSize=20;verticalAlign=top;resizable=0;rotatable=0;part=1;" vertex="1" parent="hmAbQtuS3bcoNJItyeLB-11">
          <mxGeometry y="30" width="200" height="240" as="geometry" />
        </mxCell>
      </root>
    </mxGraphModel>
  </diagram>
</mxfile>
